<svg width="288" height="288" viewBox="0 0 288 288" fill="none" xmlns="http://www.w3.org/2000/svg">
<circle cx="144" cy="144" r="144" fill="#235A3F"/>
<path d="M90.9018 112.998C96.5448 112.998 98.3792 114.148 101.712 116.236L101.738 116.252C110.089 121.484 113.996 132.024 111.243 141.881C111.151 142.2 111.056 142.518 110.96 142.837C110.946 142.884 110.932 142.931 110.918 142.978C107.901 152.692 98.3849 159.477 87.7261 159.477H63.5682V137.622C64.9071 120.142 72.8617 112.998 90.9018 112.998ZM90.9018 95C76.1205 95 47.5799 98.9997 45 136.996V177.49H87.7261C106.551 177.49 123.313 165.63 128.706 148.147C128.864 147.635 129.019 147.112 129.166 146.582C133.971 129.377 127.261 110.819 111.816 101.138C106.547 97.8334 101.218 95 90.9018 95Z" fill="#40D98C"/>
<path d="M90.9018 112.998C96.5448 112.998 98.3792 114.148 101.712 116.236L101.738 116.252C110.089 121.484 113.996 132.024 111.243 141.881C111.151 142.2 111.056 142.518 110.96 142.837C110.946 142.884 110.932 142.931 110.918 142.978C107.901 152.692 98.3849 159.477 87.7261 159.477H63.5682V137.622C64.9071 120.142 72.8617 112.998 90.9018 112.998ZM90.9018 95C76.1205 95 47.5799 98.9997 45 136.996V177.49H87.7261C106.551 177.49 123.313 165.63 128.706 148.147C128.864 147.635 129.019 147.112 129.166 146.582C133.971 129.377 127.261 110.819 111.816 101.138C106.547 97.8334 101.218 95 90.9018 95Z" stroke="black"/>
<path d="M154.489 121.224C145.49 121.224 138.248 123.674 132.907 128.536C124.942 135.783 124.41 145.581 124.421 148.231C123.667 157.119 127.51 174.222 147.697 178.342C149.792 178.776 151.928 178.996 154.071 179C174.785 179 186.074 157.623 186.587 156.625L173.684 150.344C173.6 150.502 165.853 164.968 153.773 164.968C152.731 164.968 151.692 164.862 150.673 164.654C148.741 164.286 146.89 163.596 145.203 162.614L180.586 142.696L178.726 137.293C177.097 132.54 171.56 123.93 161.067 121.674L160.267 121.546C158.349 121.344 156.42 121.241 154.489 121.235V121.224ZM138.784 150.026C138.784 149.694 138.81 149.421 138.829 149.227L138.829 149.226L138.889 148.86L138.863 148.279C138.863 148.278 138.863 148.277 138.863 148.275C138.862 148.104 138.821 142.291 142.872 138.682C145.445 136.393 149.337 135.238 154.474 135.238C155.674 135.238 156.945 135.304 158.28 135.428C159.53 135.757 160.689 136.35 161.674 137.165L138.788 150.045L138.784 150.026Z" fill="#40D98C"/>
<path d="M154.489 121.224C145.49 121.224 138.248 123.674 132.907 128.536C124.942 135.783 124.41 145.581 124.421 148.231C123.667 157.119 127.51 174.222 147.697 178.342C149.792 178.776 151.928 178.996 154.071 179C174.785 179 186.074 157.623 186.587 156.625L173.684 150.344C173.6 150.502 165.853 164.968 153.773 164.968C152.731 164.968 151.692 164.862 150.673 164.654C148.741 164.286 146.89 163.596 145.203 162.614L180.586 142.696L178.726 137.293C177.097 132.54 171.56 123.93 161.067 121.674L160.267 121.546C158.349 121.344 156.42 121.241 154.489 121.235V121.224ZM138.784 150.026C138.784 149.694 138.81 149.421 138.829 149.227L138.829 149.226L138.889 148.86L138.863 148.279C138.863 148.278 138.863 148.277 138.863 148.275C138.862 148.104 138.821 142.291 142.872 138.682C145.445 136.393 149.337 135.238 154.474 135.238C155.674 135.238 156.945 135.304 158.28 135.428C159.53 135.757 160.689 136.35 161.674 137.165L138.788 150.045L138.784 150.026Z" stroke="black"/>
<path d="M211.903 121.224C202.903 121.224 195.658 123.674 190.317 128.536C182.355 135.783 181.823 145.581 181.831 148.231C181.076 157.119 184.92 174.222 205.106 178.342C207.202 178.776 209.34 178.996 211.484 179C232.194 179 243.483 157.623 244 156.625L231.093 150.344C231.01 150.502 223.271 164.968 211.19 164.968C210.145 164.966 209.104 164.86 208.082 164.65C206.151 164.283 204.3 163.593 202.613 162.61L237.996 142.692L236.14 137.289C234.507 132.536 228.974 123.926 218.477 121.67L217.681 121.543C215.762 121.341 213.833 121.237 211.903 121.232V121.224ZM196.194 150.026C196.194 149.756 196.213 149.525 196.229 149.344C196.233 149.302 196.236 149.262 196.239 149.226L196.303 148.86L196.276 148.279C196.276 148.278 196.276 148.277 196.276 148.275C196.275 148.101 196.232 142.29 200.286 138.682C202.858 136.393 206.747 135.238 211.884 135.238C213.087 135.238 214.354 135.304 215.69 135.428C216.94 135.756 218.099 136.349 219.084 137.165L196.197 150.045L196.194 150.026Z" fill="#40D98C"/>
<path d="M211.903 121.224C202.903 121.224 195.658 123.674 190.317 128.536C182.355 135.783 181.823 145.581 181.831 148.231C181.076 157.119 184.92 174.222 205.106 178.342C207.202 178.776 209.34 178.996 211.484 179C232.194 179 243.483 157.623 244 156.625L231.093 150.344C231.01 150.502 223.271 164.968 211.19 164.968C210.145 164.966 209.104 164.86 208.082 164.65C206.151 164.283 204.3 163.593 202.613 162.61L237.996 142.692L236.14 137.289C234.507 132.536 228.974 123.926 218.477 121.67L217.681 121.543C215.762 121.341 213.833 121.237 211.903 121.232V121.224ZM196.194 150.026C196.194 149.756 196.213 149.525 196.229 149.344C196.233 149.302 196.236 149.262 196.239 149.226L196.303 148.86L196.276 148.279C196.276 148.278 196.276 148.277 196.276 148.275C196.275 148.101 196.232 142.29 200.286 138.682C202.858 136.393 206.747 135.238 211.884 135.238C213.087 135.238 214.354 135.304 215.69 135.428C216.94 135.756 218.099 136.349 219.084 137.165L196.197 150.045L196.194 150.026Z" stroke="black"/>
</svg>
