<svg width="288" height="288" viewBox="0 0 288 288" fill="none" xmlns="http://www.w3.org/2000/svg">
<circle cx="144" cy="144" r="144" fill="white"/>
<path d="M89.9018 113.998C95.5595 113.998 97.3887 115.154 100.738 117.252C109.089 122.484 112.996 133.024 110.243 142.881C110.137 143.246 110.028 143.612 109.918 143.978C106.901 153.692 97.3849 160.477 86.7261 160.477H62.5682V138.622C63.9071 121.142 71.8617 113.998 89.9018 113.998ZM89.9018 96C75.1205 96 46.5799 99.9997 44 137.996V178.49H86.7261C105.551 178.49 122.313 166.63 127.706 149.147C127.864 148.635 128.019 148.112 128.166 147.582C132.971 130.377 126.261 111.819 110.816 102.138C105.547 98.8334 100.218 96 89.9018 96Z" fill="#40D98C"/>
<path d="M153.489 122.224C144.49 122.224 137.248 124.674 131.907 129.536C123.942 136.783 123.41 146.581 123.421 149.231C122.667 158.119 126.51 175.222 146.697 179.342C148.792 179.776 150.928 179.996 153.071 180C173.785 180 185.074 158.623 185.587 157.625L172.684 151.344C172.6 151.502 164.853 165.968 152.773 165.968C151.731 165.968 150.692 165.862 149.673 165.654C147.741 165.286 145.89 164.596 144.203 163.614L179.586 143.696L177.726 138.293C176.097 133.54 170.56 124.93 160.067 122.674L159.267 122.546C157.349 122.344 155.42 122.241 153.489 122.235V122.224ZM137.784 151.026C137.784 150.694 137.81 150.419 137.829 150.226L137.889 149.86L137.863 149.279C137.863 149.22 137.78 143.327 141.872 139.682C144.445 137.393 148.337 136.238 153.474 136.238C154.674 136.238 155.945 136.304 157.28 136.428C158.53 136.757 159.689 137.35 160.674 138.165L137.788 151.045L137.784 151.026Z" fill="#40D98C"/>
<path d="M210.902 122.224C201.903 122.224 194.658 124.674 189.317 129.536C181.355 136.783 180.823 146.581 180.831 149.231C180.076 158.119 183.92 175.222 204.106 179.342C206.202 179.776 208.34 179.996 210.484 180C231.194 180 242.483 158.623 243 157.625L230.093 151.344C230.01 151.502 222.271 165.968 210.19 165.968C209.145 165.966 208.104 165.86 207.082 165.65C205.151 165.283 203.3 164.593 201.613 163.61L236.996 143.692L235.139 138.289C233.506 133.536 227.974 124.926 217.477 122.67L216.681 122.543C214.762 122.341 212.833 122.237 210.902 122.232V122.224ZM195.194 151.026C195.194 150.694 195.224 150.419 195.239 150.226L195.303 149.86L195.276 149.279C195.276 149.22 195.19 143.327 199.286 139.682C201.858 137.393 205.747 136.238 210.884 136.238C212.087 136.238 213.354 136.304 214.69 136.428C215.94 136.756 217.099 137.349 218.084 138.165L195.197 151.045L195.194 151.026Z" fill="#40D98C"/>
</svg>
